<svg xmlns="http://www.w3.org/2000/svg" viewBox="0 0 820 470" font-family="Segoe UI, Arial, sans-serif">
  <defs><marker id="ar" markerWidth="9" markerHeight="9" refX="7.5" refY="3" orient="auto"><path d="M0,0 L8,3 L0,6 Z" fill="#333"/></marker></defs>
  <style>.wire{stroke:#333;stroke-width:1.7;fill:none}.reg{fill:#fff;stroke:#1f3a5f;stroke-width:1.7}.alu{fill:#ffe14d;stroke:#9a8410;stroke-width:1.6}.lbl{font-size:15px;fill:#222}.sl{font-size:14px;fill:#1f3a5f}.sym{font-size:22px;font-weight:bold;fill:#222;text-anchor:middle}.fde{font-size:16px;font-weight:bold;fill:#1f3a5f;text-anchor:middle}.cp{font-size:14px;fill:#c0306a}</style>
  <path class="alu" d="M170,70 L266,98.8 L266,161.2 L170,190 Z"/>
  <text class="sym" x="210.32" y="137.0">+</text>
  <text class="lbl" x="141" y="94" text-anchor="middle">inp1</text>
  <line class="wire" x1="112" y1="102" x2="170" y2="102" marker-end="url(#ar)"/>
  <text class="lbl" x="141" y="154" text-anchor="middle">inp2</text>
  <line class="wire" x1="112" y1="162" x2="170" y2="162" marker-end="url(#ar)"/>
  <path class="wire" d="M266,130.0 L320,130.0" marker-end="url(#ar)"/>
  <rect class="reg" x="320" y="102.0" width="46" height="56"/>
  <path class="wire" d="M320,143.0 L331,150.0 L320,157.0"/>
  <text class="sl" x="372" y="120.0">s1</text>
  <path class="alu" d="M170,290 L266,318.8 L266,381.2 L170,410 Z"/>
  <text class="sym" x="210.32" y="357.0">+</text>
  <text class="lbl" x="141" y="314" text-anchor="middle">inp3</text>
  <line class="wire" x1="112" y1="322" x2="170" y2="322" marker-end="url(#ar)"/>
  <text class="lbl" x="141" y="374" text-anchor="middle">inp4</text>
  <line class="wire" x1="112" y1="382" x2="170" y2="382" marker-end="url(#ar)"/>
  <path class="wire" d="M266,350.0 L320,350.0" marker-end="url(#ar)"/>
  <rect class="reg" x="320" y="322.0" width="46" height="56"/>
  <path class="wire" d="M320,363.0 L331,370.0 L320,377.0"/>
  <text class="sl" x="372" y="340.0">s2</text>
  <path class="alu" d="M470,180 L566,208.8 L566,271.2 L470,300 Z"/>
  <text class="sym" x="510.32" y="247.0">+</text>
  <path class="wire" d="M366,130.0 L448,130.0 L448,212 L470,212" marker-end="url(#ar)"/>
  <path class="wire" d="M366,350.0 L448,350.0 L448,272 L470,272" marker-end="url(#ar)"/>
  <path class="wire" d="M566,240.0 L620,240.0" marker-end="url(#ar)"/>
  <rect class="reg" x="620" y="212.0" width="46" height="56"/>
  <path class="wire" d="M620,253.0 L631,260.0 L620,267.0"/>
  <text class="sl" x="672" y="230.0">sum</text>
  <path class="wire" d="M666,240.0 L710,240.0" marker-end="url(#ar)"/>
  <text class="cp" x="120" y="445">kritischer Pfad = 1 Addierer pro Stufe (balanciert, höhere Frequenz)</text>
</svg>
