<svg xmlns="http://www.w3.org/2000/svg" viewBox="0 0 980 470" font-family="Segoe UI, Arial, sans-serif">
  <defs><marker id="ar" markerWidth="9" markerHeight="9" refX="8" refY="3" orient="auto"><path d="M0,0 L8,3 L0,6 Z" fill="#444"/></marker><marker id="arc" markerWidth="9" markerHeight="9" refX="8" refY="3" orient="auto"><path d="M0,0 L8,3 L0,6 Z" fill="#c0306a"/></marker></defs>
  <style>.edge{stroke:#555;stroke-width:1.7;fill:none}.crit{stroke:#c0306a;stroke-width:3;fill:none}.node{fill:#cdb6ec;stroke:#6a3d9a;stroke-width:1.8}.nm{font-size:13px;font-weight:bold;fill:#3a2060;text-anchor:middle}.w{font-size:12.5px;fill:#c0392b;text-anchor:middle}.arr{font-size:13px;font-weight:bold;fill:#c0306a;text-anchor:middle}.del{font-size:11px;fill:#555;text-anchor:middle}.cap{font-size:13px;fill:#222}</style>
  <path class="edge" d="M83.8,240.0 L233.8,131.7" marker-end="url(#ar)"/>
  <text class="w" x="166.4" y="194.4">0</text>
  <path class="crit" d="M87.0,250.0 L230.0,250.0" marker-end="url(#arc)"/>
  <text class="w" x="158.5" y="261.0">0</text>
  <path class="edge" d="M83.8,260.0 L233.8,368.3" marker-end="url(#ar)"/>
  <text class="w" x="151.2" y="322.7">0.1</text>
  <path class="edge" d="M266.9,122.0 L570.1,157.7" marker-end="url(#ar)"/>
  <text class="w" x="417.0" y="150.7">0.05</text>
  <path class="crit" d="M267.0,250.0 L390.0,250.0" marker-end="url(#arc)"/>
  <text class="w" x="328.5" y="261.0">0.10</text>
  <path class="crit" d="M425.2,242.4 L572.1,168.9" marker-end="url(#arc)"/>
  <text class="w" x="504.5" y="215.3">0.05</text>
  <path class="edge" d="M266.4,254.4 L570.7,334.9" marker-end="url(#ar)"/>
  <text class="w" x="415.2" y="305.2">0.20</text>
  <path class="edge" d="M266.9,378.0 L570.1,342.3" marker-end="url(#ar)"/>
  <text class="w" x="420.0" y="371.1">0.05</text>
  <path class="crit" d="M605.0,168.0 L742.3,240.6" marker-end="url(#arc)"/>
  <text class="w" x="667.6" y="213.8">0.20</text>
  <path class="edge" d="M605.0,332.0 L742.3,259.4" marker-end="url(#ar)"/>
  <text class="w" x="679.8" y="305.2">0.20</text>
  <path class="crit" d="M777.0,250.0 L890.0,250.0" marker-end="url(#arc)"/>
  <text class="w" x="833.5" y="261.0">0.15</text>
  <circle class="node" cx="70" cy="250" r="17"/>
  <text class="nm" x="70" y="254">0</text>
  <text class="arr" x="70" y="226">0</text>
  <text class="del" x="70" y="282">0</text>
  <circle class="node" cx="250" cy="120" r="17"/>
  <text class="nm" x="250" y="124">a</text>
  <text class="arr" x="250" y="96">0</text>
  <text class="del" x="250" y="152">0</text>
  <circle class="node" cx="250" cy="250" r="17"/>
  <text class="nm" x="250" y="254">b</text>
  <text class="arr" x="250" y="226">0</text>
  <text class="del" x="250" y="282">0</text>
  <circle class="node" cx="250" cy="380" r="17"/>
  <text class="nm" x="250" y="384">c</text>
  <text class="arr" x="250" y="356">0.1</text>
  <text class="del" x="250" y="412">0</text>
  <circle class="node" cx="410" cy="250" r="17"/>
  <text class="nm" x="410" y="254">G1</text>
  <text class="arr" x="410" y="226">1.1</text>
  <text class="del" x="410" y="282">1</text>
  <circle class="node" cx="590" cy="160" r="17"/>
  <text class="nm" x="590" y="164">G2</text>
  <text class="arr" x="590" y="136">3.15</text>
  <text class="del" x="590" y="192">2</text>
  <circle class="node" cx="590" cy="340" r="17"/>
  <text class="nm" x="590" y="344">G3</text>
  <text class="arr" x="590" y="316">2.20</text>
  <text class="del" x="590" y="372">2</text>
  <circle class="node" cx="760" cy="250" r="17"/>
  <text class="nm" x="760" y="254">G4</text>
  <text class="arr" x="760" y="226">5.35</text>
  <text class="del" x="760" y="282">2</text>
  <circle class="node" cx="910" cy="250" r="17"/>
  <text class="nm" x="910" y="254">f</text>
  <text class="arr" x="910" y="226">5.50</text>
  <text class="del" x="910" y="282">0</text>
  <text class="cap" x="20" y="40">Ursprung</text>
  <text class="arr" x="640" y="440">Ankunftszeit D(N)</text>
  <text class="w"   x="790" y="440">Kantengewicht d(v→N)</text>
  <text class="del" x="915" y="440">Gatterlaufzeit d(N)</text>
</svg>
