<svg xmlns="http://www.w3.org/2000/svg" viewBox="0 0 560 210" font-family="Segoe UI, Arial, sans-serif">
  <defs><marker id="ar" markerWidth="9" markerHeight="9" refX="7.5" refY="3" orient="auto"><path d="M0,0 L8,3 L0,6 Z" fill="#333"/></marker><marker id="arm" markerWidth="8" markerHeight="8" refX="6.5" refY="2.6" orient="auto"><path d="M0,0 L7,2.6 L0,5.2 Z" fill="#c026d3"/></marker></defs>
  <style>.fpga{fill:none;stroke:#1f4e79;stroke-width:1.8}.box{fill:#eef4fb;stroke:#1f4e79;stroke-width:1.6}.dev{fill:#fafafa;stroke:#444;stroke-width:1.4}.ff{fill:#f6c27a;stroke:#9a5a12;stroke-width:1.4}.comb{fill:#fff3b0;stroke:#8a7a12;stroke-width:1.4}.dll{fill:#7fce7f;stroke:#2e7d32;stroke-width:1.4}.sync{fill:#dcdcdc;stroke:#555;stroke-width:1.4}.wire{stroke:#333;stroke-width:1.5;fill:none}.wave{stroke:#1f4e79;stroke-width:2;fill:none}.dash{stroke:#c026d3;stroke-width:1.1;stroke-dasharray:4 3;fill:none}.lbl{font-size:12px;fill:#222}.lblb{font-size:12px;font-weight:bold;fill:#222}.cap{font-size:11px;fill:#555;text-anchor:middle}.cir{fill:#fff;stroke:#c0306a;stroke-width:1.6}.cirT{font-size:11px;font-weight:bold;fill:#c0306a;text-anchor:middle;dominant-baseline:middle}.dt{font-size:12px;font-weight:bold;fill:#c026d3;text-anchor:middle}.dim{stroke:#c026d3;stroke-width:1.2;fill:none}.tt{font-size:12px;font-weight:bold;fill:#1f4e79;text-anchor:middle}</style>
  <ellipse class="comb" cx="72" cy="95" rx="50" ry="32"/>
  <text class="lbl" x="72" y="92" text-anchor="middle">Kombi-</text>
  <text class="lbl" x="72" y="106" text-anchor="middle">natorik</text>
  <text class="lblb" x="72" y="150" text-anchor="middle">slow_clk</text>
  <line class="wire" x1="122" y1="95" x2="178" y2="95"/>
  <rect class="sync" x="178" y="55" width="132" height="92" rx="3"/>
  <text class="cap" x="244" y="50">Synchronisierer</text>
  <rect class="ff" x="192" y="72" width="26" height="46" rx="2"/>
  <path class="wire" d="M192,104 L201,109 L192,114"/>
  <rect class="ff" x="258" y="72" width="26" height="46" rx="2"/>
  <path class="wire" d="M258,104 L267,109 L258,114"/>
  <line class="wire" x1="218" y1="95" x2="258" y2="95"/>
  <text class="lblb" x="238" y="86" text-anchor="middle">Di</text>
  <text class="lblb" x="244" y="166" text-anchor="middle">clk (Zieltakt)</text>
  <line class="wire" x1="310" y1="95" x2="368" y2="95"/>
  <ellipse class="comb" cx="420" cy="95" rx="50" ry="32"/>
  <text class="lbl" x="420" y="92" text-anchor="middle">Kombi-</text>
  <text class="lbl" x="420" y="106" text-anchor="middle">natorik</text>
</svg>
