<svg xmlns="http://www.w3.org/2000/svg" viewBox="0 0 1060 490" font-family="Segoe UI, Arial, sans-serif">
  <defs><marker id="ar" markerWidth="9" markerHeight="9" refX="7.5" refY="3" orient="auto"><path d="M0,0 L8,3 L0,6 Z" fill="#333"/></marker></defs>
  <style>.wire{stroke:#333;stroke-width:1.6;fill:none}.gate{fill:#eaf2fb;stroke:#1f3a5f;stroke-width:1.7}.reg{fill:#fff;stroke:#1f3a5f;stroke-width:1.8}.lbl{font-size:14px;fill:#222}.sl{font-size:13px;fill:#444}.gn{font-size:12px;fill:#1f3a5f;text-anchor:middle}.fde{font-size:16px;font-weight:bold;fill:#1f3a5f;text-anchor:middle}</style>
  <path class="gate" d="M320,48 L384,48 A48.0,48.0 0 0 1 384,144 L320,144 Z"/>
  <line class="wire" x1="276" y1="67.2" x2="320" y2="67.2"/>
  <text class="sl" x="272" y="71.2" text-anchor="end">ctrl(3)</text>
  <circle cx="315" cy="86.4" r="5" fill="#fff" stroke="#1f3a5f" stroke-width="1.4"/>
  <line class="wire" x1="266" y1="86.4" x2="310" y2="86.4"/>
  <text class="sl" x="262" y="90.4" text-anchor="end">ctrl(2)</text>
  <circle cx="315" cy="105.6" r="5" fill="#fff" stroke="#1f3a5f" stroke-width="1.4"/>
  <line class="wire" x1="266" y1="105.6" x2="310" y2="105.6"/>
  <text class="sl" x="262" y="109.6" text-anchor="end">ctrl(1)</text>
  <circle cx="315" cy="124.8" r="5" fill="#fff" stroke="#1f3a5f" stroke-width="1.4"/>
  <line class="wire" x1="266" y1="124.8" x2="310" y2="124.8"/>
  <text class="sl" x="262" y="128.8" text-anchor="end">ctrl(0)</text>
  <path class="gate" d="M320,184 L384,184 A39.0,39.0 0 0 1 384,262 L320,262 Z"/>
  <line class="wire" x1="276" y1="203.5" x2="320" y2="203.5"/>
  <text class="sl" x="272" y="207.5" text-anchor="end">ctrl(2)</text>
  <circle cx="315" cy="223.0" r="5" fill="#fff" stroke="#1f3a5f" stroke-width="1.4"/>
  <line class="wire" x1="266" y1="223.0" x2="310" y2="223.0"/>
  <text class="sl" x="262" y="227.0" text-anchor="end">ctrl(1)</text>
  <circle cx="315" cy="242.5" r="5" fill="#fff" stroke="#1f3a5f" stroke-width="1.4"/>
  <line class="wire" x1="266" y1="242.5" x2="310" y2="242.5"/>
  <text class="sl" x="262" y="246.5" text-anchor="end">ctrl(0)</text>
  <path class="gate" d="M320,300 L384,300 A30.0,30.0 0 0 1 384,360 L320,360 Z"/>
  <line class="wire" x1="276" y1="320.0" x2="320" y2="320.0"/>
  <text class="sl" x="272" y="324.0" text-anchor="end">ctrl(1)</text>
  <circle cx="315" cy="340.0" r="5" fill="#fff" stroke="#1f3a5f" stroke-width="1.4"/>
  <line class="wire" x1="266" y1="340.0" x2="310" y2="340.0"/>
  <text class="sl" x="262" y="344.0" text-anchor="end">ctrl(0)</text>
  <text class="gn" x="352" y="160">AND4B3</text>
  <text class="gn" x="352" y="278">AND3B2</text>
  <text class="gn" x="352" y="376">AND2B1</text>
  <text class="sl" x="272" y="424" text-anchor="end">ctrl(0)</text>
  <line class="wire" x1="276" y1="420" x2="430" y2="420"/>
  <line class="wire" x1="432.0" y1="96.0" x2="482" y2="96.0"/>
  <circle cx="482" cy="96.0" r="3" fill="#333"/>
  <line class="wire" x1="423.0" y1="223.0" x2="482" y2="223.0"/>
  <circle cx="482" cy="223.0" r="3" fill="#333"/>
  <line class="wire" x1="414.0" y1="330.0" x2="482" y2="330.0"/>
  <circle cx="482" cy="330.0" r="3" fill="#333"/>
  <line class="wire" x1="430" y1="420" x2="482" y2="420"/>
  <circle cx="482" cy="420" r="3" fill="#333"/>
  <line class="wire" x1="482" y1="96.0" x2="482" y2="420"/>
  <text class="sl" x="490" y="208">Enable</text>
  <rect class="reg" x="660" y="140" width="150" height="210" rx="3"/>
  <text class="fde" x="735.0" y="130">FDE</text>
  <text class="lbl" x="672" y="180">D</text>
  <text class="lbl" x="672" y="250">CE</text>
  <text class="lbl" x="672" y="310">C</text>
  <text class="lbl" x="796" y="250" text-anchor="end">Q</text>
  <path class="wire" d="M660,297 L672,305 L660,313"/>
  <line class="wire" x1="482" y1="245" x2="660" y2="245" marker-end="url(#ar)"/>
  <text class="lbl" x="40" y="34">inp</text>
  <path class="wire" d="M70,30 L628,30 L628,175 L660,175" marker-end="url(#ar)"/>
  <text class="lbl" x="40" y="466">clk</text>
  <path class="wire" d="M70,462 L636,462 L636,305 L660,305" marker-end="url(#ar)"/>
  <line class="wire" x1="810" y1="245" x2="876" y2="245" marker-end="url(#ar)"/>
  <text class="lbl" x="882" y="250">rout(3:0)</text>
</svg>
